<?xml version="1.0" encoding="UTF-8" standalone="no"?>
<svg
   xmlns:dc="http://purl.org/dc/elements/1.1/"
   xmlns:cc="http://creativecommons.org/ns#"
   xmlns:rdf="http://www.w3.org/1999/02/22-rdf-syntax-ns#"
   xmlns:svg="http://www.w3.org/2000/svg"
   xmlns="http://www.w3.org/2000/svg"
   xmlns:sodipodi="http://sodipodi.sourceforge.net/DTD/sodipodi-0.dtd"
   xmlns:inkscape="http://www.inkscape.org/namespaces/inkscape"
   inkscape:version="1.0 (4035a4fb49, 2020-05-01)"
   inkscape:export-ydpi="100"
   version="1.1"
   inkscape:export-xdpi="100"
   viewBox="0 0 700 700"
   inkscape:export-filename="C:\Users\dmacdonald\Downloads\survey2b.png"
   sodipodi:docname="comp_icon.svg"
   id="svg3845">
  <defs
     id="defs41">
    <linearGradient
       x1="178.32001"
       y1="245.94"
       x2="178.32001"
       gradientUnits="userSpaceOnUse"
       y2="207.83"
       id="XMLID_7_">
      <stop
         id="stop15"
         offset="0"
         style="stop-color:#F0D0B4" />
      <stop
         id="stop17"
         offset="1"
         style="stop-color:#DFB28B" />
    </linearGradient>
    <linearGradient
       x1="285.37"
       y1="252.45"
       x2="285.37"
       gradientUnits="userSpaceOnUse"
       y2="232.19"
       id="XMLID_8_">
      <stop
         id="stop22"
         offset="0"
         style="stop-color:#F0D0B4" />
      <stop
         id="stop24"
         offset="1"
         style="stop-color:#DFB28B" />
    </linearGradient>
    <radialGradient
       r="24.037001"
       cx="179.57001"
       cy="248.94"
       gradientUnits="userSpaceOnUse"
       id="XMLID_9_">
      <stop
         id="stop42"
         offset=".4157"
         style="stop-color:#FFFFFF" />
      <stop
         id="stop44"
         offset=".7215"
         style="stop-color:#FDFEFF" />
      <stop
         id="stop46"
         offset=".8317"
         style="stop-color:#F6FBFD" />
      <stop
         id="stop48"
         offset=".9102"
         style="stop-color:#EBF7FA" />
      <stop
         id="stop50"
         offset=".9732"
         style="stop-color:#DAF0F5" />
      <stop
         id="stop52"
         offset="1"
         style="stop-color:#D0ECF3" />
    </radialGradient>
    <radialGradient
       r="13.746"
       cx="174.64"
       cy="248.95"
       gradientUnits="userSpaceOnUse"
       id="XMLID_10_">
      <stop
         id="stop57"
         offset="0"
         style="stop-color:#AA962E" />
      <stop
         id="stop59"
         offset="1"
         style="stop-color:#406325" />
    </radialGradient>
    <radialGradient
       r="12.616"
       cx="281.35999"
       cy="252.14"
       gradientUnits="userSpaceOnUse"
       id="XMLID_11_">
      <stop
         id="stop70"
         offset=".4157"
         style="stop-color:#FFFFFF" />
      <stop
         id="stop72"
         offset=".7215"
         style="stop-color:#FDFEFF" />
      <stop
         id="stop74"
         offset=".8317"
         style="stop-color:#F6FBFD" />
      <stop
         id="stop76"
         offset=".9102"
         style="stop-color:#EBF7FA" />
      <stop
         id="stop78"
         offset=".9732"
         style="stop-color:#DAF0F5" />
      <stop
         id="stop80"
         offset="1"
         style="stop-color:#D0ECF3" />
    </radialGradient>
    <radialGradient
       r="9.4221001"
       cx="279.97"
       cy="251.57001"
       gradientUnits="userSpaceOnUse"
       id="XMLID_12_">
      <stop
         id="stop85"
         offset="0"
         style="stop-color:#AA962E" />
      <stop
         id="stop87"
         offset="1"
         style="stop-color:#406325" />
    </radialGradient>
  </defs>
  <sodipodi:namedview
     inkscape:document-rotation="0"
     inkscape:document-units="px"
     inkscape:pageopacity="0.0"
     inkscape:window-width="1920"
     inkscape:cy="536.67732"
     inkscape:cx="376.72252"
     inkscape:current-layer="layer1"
     borderopacity="1.0"
     showgrid="false"
     inkscape:window-x="0"
     inkscape:zoom="0.7071068"
     inkscape:window-maximized="1"
     inkscape:window-height="1016"
     pagecolor="#ffffff"
     inkscape:window-y="27"
     inkscape:pageshadow="2"
     bordercolor="#666666"
     id="base" />
  <g
     transform="translate(0 -352.36)"
     inkscape:groupmode="layer"
     inkscape:label="Layer 1"
     id="layer1">
    <path
       sodipodi:cx="-201.42857"
       sodipodi:cy="425.21933"
       transform="matrix(.97062 0 0 1.0681 542.11 248.51)"
       d="m142.86 425.22c0 172.79-154.14 312.86-344.29 312.86-190.14 0-344.29-140.07-344.29-312.86s154.14-312.86 344.29-312.86c190.14 0 344.29 140.07 344.29 312.86z"
       sodipodi:type="arc"
       style="fill:#ff6600"
       sodipodi:ry="312.85715"
       sodipodi:rx="344.28571"
       id="path3855" />
    <rect
       x="79.949997"
       y="538.03998"
       width="533.28998"
       height="297.32001"
       ry="14.501"
       style="fill:#808080;stroke:#000000;stroke-width:11.278;stroke-linecap:square;stroke-linejoin:round"
       id="rect4371" />
    <rect
       x="79.949997"
       y="538.03998"
       width="533.28998"
       height="297.32001"
       ry="14.501"
       style="fill:none;stroke:#000000;stroke-width:11.278;stroke-linecap:square;stroke-linejoin:round"
       id="rect3853" />
    <rect
       x="289.07001"
       y="837.27002"
       width="115.04"
       height="70.489998"
       style="fill:#000000"
       id="rect4571" />
    <rect
       x="187.28999"
       y="900.42999"
       width="318.62"
       height="23.684999"
       style="fill:#000000"
       id="rect4573" />
    <g
       transform="matrix(0.74339012,0,0,0.61602818,214.91523,552.89022)"
       id="g213">
      <g
         id="Layer_1">
        <path
           id="path2"
           fill="#f0d0b4"
           d="m 10.775,269.78 c 0,0 -30.281,-195.42 119.01,-217.25 149.291,-21.83 165.49,123.94 173.24,161.27 7.746,37.323 -21.127,30.985 7.746,59.858 28.873,28.874 -14.788,53.522 -20.422,76.762 3.815,0.458 13.828,8.417 -0.165,13.487 3.438,20.623 20.208,43.229 10.728,52.709 -11.62,11.62 -133.8,51.409 -199.3,-62.676 -65.5,-114.085 -90.835,-84.16 -90.835,-84.16 z"
           stroke="#cf9e76" />
        <path
           id="path4"
           fill="#ffdc8f"
           d="m 33.188,321.71 c 0,0 -20.883,0.443 -21.767,-1.988 -0.884,-2.431 3.204,-3.868 3.204,-3.868 l -3.867,-2.872 2.21,-3.204 -2.762,-4.089 3.535,-3.535 -7.182,-7.072 2.983,-5.745 c 0,0 -22.507,-130.64 3.493,-184.14 26,-53.5 5.5,-61.5 5.5,-61.5 l 33,12 c 0,0 28.978,-18.392 26.75,-26.75 12.709,5.724 8.75,21.75 8.75,21.75 0,0 56.206,-38.833 49.5,-48.5 12.337,9.376 30.5,47 30.5,47 0,0 49.75,-36.986 45,-48 15.092,8.828 -5,48.5 -5,48.5 0,0 57.597,-34.951 52.5,-47.5 17.2,7.294 -0.5,46 -0.5,46 0,0 67.382,-19.654 65,-33.5 15.86,16.879 -34.089,62.866 -34.089,62.866 0,0 32.775,-1.18 40.669,-10.887 -0.854,33.82 -48.58,68.728 -48.58,68.728 0,0 -19.913,22.792 -58.5,22.792 -77,0 -94.5,-31.5 -117,-9 -22.5,22.5 -17,84 -17,84 0,0 -42.5,69.5 -42.5,87 0,17.5 -13.852,1.51 -13.852,1.51 z"
           stroke="#c7b29d" />
        <path
           id="path6"
           fill="#ffc64e"
           d="m 212.93,158 c 0,0 17.186,-60.376 10.678,-73.604 14.935,12.802 -0.074,73.81 -0.074,73.81 0,0 -10.14,0.26 -10.61,-0.21 z"
           stroke="#d6c2ad" />
        <path
           id="path8"
           fill="#ffc64e"
           d="m 232.04,157.82 c 0,0 25.067,-27.024 19.733,-44.947 11.629,15.576 -5.083,42.392 -5.083,42.392 0,0 -10.06,2.56 -14.65,2.56 z"
           stroke="#d6c2ad" />
        <path
           id="path10"
           fill="#ffc64e"
           d="m 175.9,153.62 c 0,0 -13.101,-42.454 -4.993,-64.965 -19.736,13.868 -7.012,62.188 -7.012,62.188 0,0 4.94,2.24 12,2.78 z"
           stroke="#d6c2ad" />
        <path
           id="path12"
           fill="#ffc64e"
           d="m 101.74,155.17 c 0,0 -31.969,-32.158 -30.262,-48.801 -9.708,16.002 26.305,56.142 26.305,56.142 l 3.957,-7.34 z"
           stroke="#d6c2ad" />
      </g>
      <g
         id="Layer_5">
        <linearGradient
           x1="178.32001"
           y1="245.94"
           x2="178.32001"
           gradientUnits="userSpaceOnUse"
           y2="207.83"
           id="linearGradient260">
          <stop
             id="stop256"
             offset="0"
             style="stop-color:#F0D0B4" />
          <stop
             id="stop258"
             offset="1"
             style="stop-color:#DFB28B" />
        </linearGradient>
        <path
           style="fill:url(#XMLID_7_)"
           id="path20"
           fill="url(#XMLID_7_)"
           d="m 147.55,254.9 c -0.702,-0.701 -24.575,-25.663 -24.575,-25.663 0,0 11.576,-31.254 49.096,-30.17 37.52,1.083 61.594,25.872 61.594,25.872 l -16.724,32.092 -69.4,-2.13 z" />
        <linearGradient
           x1="285.37"
           y1="252.45"
           x2="285.37"
           gradientUnits="userSpaceOnUse"
           y2="232.19"
           id="linearGradient267">
          <stop
             id="stop263"
             offset="0"
             style="stop-color:#F0D0B4" />
          <stop
             id="stop265"
             offset="1"
             style="stop-color:#DFB28B" />
        </linearGradient>
        <path
           style="fill:url(#XMLID_8_)"
           id="path27"
           fill="url(#XMLID_8_)"
           d="m 267.06,252.48 c 0,0 -2.38,-15.149 2.371,-21.676 4.751,-6.527 34.827,-1.313 34.827,-1.313 0,0 -1.904,11.458 -5.65,18.385 -3.746,6.928 -2.793,10.465 -2.793,10.465 l -28.76,-5.86 z" />
      </g>
      <g
         id="Layer_3">
        <path
           id="path30"
           fill="#dfb28b"
           d="m 224,313.98 c 0,0 45.229,9.868 59.483,-4.386 14.254,-14.254 -3.016,-35.361 -3.016,-35.361 0,0 38.65,34.265 8.498,48.793 -30.152,14.528 -64.96,-9.04 -64.96,-9.04 z" />
        <path
           id="path32"
           fill="#dfb28b"
           d="m 228.51,373.61 c 0,0 28.096,27.001 39.198,15.898 11.102,-11.103 9.32,-23.3 9.32,-23.3 0,0 -19.19,13.16 -48.52,7.4 z" />
        <path
           id="path34"
           fill="#dfb28b"
           d="m 148.35,324.95 c 0,0 -7.949,-20.559 0.548,-22.203 8.497,-1.644 37.28,9.319 49.341,-9.32 12.061,-18.64 -1.097,-14.527 -1.097,-14.527 0,0 -4.659,18.091 -29.604,18.091 -24.95,0 -33.45,-5.21 -19.19,27.96 z" />
        <path
           id="path36"
           fill="#937952"
           d="m 121.85,230.36 c 0,0 16.065,-42.368 33.719,-46.326 17.654,-3.958 89.74,20.616 89.74,20.616 0,0 -0.968,23.253 -23.506,22.967 -22.53,-0.29 -53.45,-44.21 -99.95,2.74 z"
           stroke="#cf9e76" />
        <path
           id="path38"
           fill="#937952"
           d="m 265.94,211.19 c 0,6.853 1.371,22.751 7.676,22.751 6.305,0 37.91,-17.25 29.646,1.655 -8.265,18.904 23.455,-14.471 10.101,-26.051 -13.354,-11.58 -47.43,1.64 -47.43,1.64 z"
           stroke="#cf9e76" />
        <path
           id="path40"
           fill="#ffffff"
           d="m 291.16,334.82 c 0,0 -127.74,1.097 -142.27,-32.071 7.949,35.36 63.596,75.107 132.67,49.889 16.32,-11.11 9.6,-17.82 9.6,-17.82 z" />
        <radialGradient
           r="24.037001"
           cx="179.57001"
           cy="248.94"
           gradientUnits="userSpaceOnUse"
           id="radialGradient289">
          <stop
             id="stop277"
             offset=".4157"
             style="stop-color:#FFFFFF" />
          <stop
             id="stop279"
             offset=".7215"
             style="stop-color:#FDFEFF" />
          <stop
             id="stop281"
             offset=".8317"
             style="stop-color:#F6FBFD" />
          <stop
             id="stop283"
             offset=".9102"
             style="stop-color:#EBF7FA" />
          <stop
             id="stop285"
             offset=".9732"
             style="stop-color:#DAF0F5" />
          <stop
             id="stop287"
             offset="1"
             style="stop-color:#D0ECF3" />
        </radialGradient>
        <path
           style="fill:url(#XMLID_9_)"
           id="path55"
           fill="url(#XMLID_9_)"
           d="m 148.25,255.74 c 0,0 2.741,-20.012 11.513,-20.012 8.772,0 45.915,4.798 48.518,7.402 2.604,2.604 2.604,14.254 2.604,14.254 0,0 -36.59,11.79 -62.63,-1.64 z"
           stroke="#000000" />
        <radialGradient
           r="13.746"
           cx="174.64"
           cy="248.95"
           gradientUnits="userSpaceOnUse"
           id="radialGradient296">
          <stop
             id="stop292"
             offset="0"
             style="stop-color:#AA962E" />
          <stop
             id="stop294"
             offset="1"
             style="stop-color:#406325" />
        </radialGradient>
        <path
           style="fill:url(#XMLID_10_)"
           id="path62"
           fill="url(#XMLID_10_)"
           d="m 163.35,235.87 c 0,0 -11.291,24.654 9.281,26.096 20.572,1.442 15.948,-23.193 15.948,-23.193 0,0 -18.08,-2.76 -25.23,-2.91 z"
           stroke="#000000" />
        <path
           id="path64"
           d="m 168.51,236.4 c 0,0 -6.126,16.443 5.036,17.404 11.162,0.962 8.653,-15.469 8.653,-15.469 0,0 -9.8,-1.83 -13.69,-1.93 z" />
        <ellipse
           id="ellipse66"
           fill="#ffffff"
           ry="2.7969999"
           rx="5.6170001"
           cx="179.52"
           cy="241.86" />
        <path
           id="path68"
           fill="#dfada5"
           d="m 207.7,258.28 c 0,0 8.024,4.271 9.149,0 1.125,-4.271 -6.235,-6.46 -6.235,-6.46 0,0 1.06,6.46 -2.92,6.46 z"
           stroke="#000000" />
        <radialGradient
           r="12.616"
           cx="281.35999"
           cy="252.14"
           gradientUnits="userSpaceOnUse"
           id="radialGradient314">
          <stop
             id="stop302"
             offset=".4157"
             style="stop-color:#FFFFFF" />
          <stop
             id="stop304"
             offset=".7215"
             style="stop-color:#FDFEFF" />
          <stop
             id="stop306"
             offset=".8317"
             style="stop-color:#F6FBFD" />
          <stop
             id="stop308"
             offset=".9102"
             style="stop-color:#EBF7FA" />
          <stop
             id="stop310"
             offset=".9732"
             style="stop-color:#DAF0F5" />
          <stop
             id="stop312"
             offset="1"
             style="stop-color:#D0ECF3" />
        </radialGradient>
        <path
           style="fill:url(#XMLID_11_)"
           id="path83"
           fill="url(#XMLID_11_)"
           d="m 295.82,258.34 c 0,0 1.365,-16.377 -3.705,-16.415 -5.07,-0.039 -21.837,2.114 -23.425,4.052 -1.588,1.938 -1.957,10.659 -1.957,10.659 0,0 13.6,11.65 29.08,1.71 z"
           stroke="#000000" />
        <radialGradient
           r="9.4221001"
           cx="279.97"
           cy="251.57001"
           gradientUnits="userSpaceOnUse"
           id="radialGradient321">
          <stop
             id="stop317"
             offset="0"
             style="stop-color:#AA962E" />
          <stop
             id="stop319"
             offset="1"
             style="stop-color:#406325" />
        </radialGradient>
        <path
           style="fill:url(#XMLID_12_)"
           id="path90"
           fill="url(#XMLID_12_)"
           d="m 287.65,242.17 c 0,0 6.923,18.12 -6.652,18.785 -13.576,0.666 -10.054,-16.051 -10.054,-16.051 0,0 11.99,-2.75 16.7,-2.74 z"
           stroke="#000000" />
        <path
           id="path92"
           d="m 284.06,242.54 c 0,0 3.871,12.293 -3.5,12.777 -7.369,0.483 -7.011,-11.087 -7.011,-11.087 0,0 7.95,-1.69 10.51,-1.69 z" />
        <path
           id="path94"
           fill="#ffffff"
           d="m 273.18,246.9 c -0.033,1.063 1.598,1.966 3.64,2.015 2.046,0.05 3.725,-0.772 3.757,-1.836 0.032,-1.064 -1.597,-1.966 -3.64,-2.015 -2.04,-0.04 -3.73,0.78 -3.76,1.84 z" />
        <path
           id="path96"
           fill="#dfada5"
           d="m 268.17,257.7 c 0,0 -4.399,2.788 -4.914,-0.414 -0.516,-3.201 3.809,-4.807 3.809,-4.807 0,0 -0.47,3.65 1.1,5.22 z"
           stroke="#000000" />
        <path
           id="path98"
           fill="#dfada5"
           d="m 246.93,333.2 c 0,0 -2.899,6.297 2.15,6.297 5.049,0 2.995,-5.948 2.995,-5.948 l -5.15,-0.35 z" />
        <path
           id="path100"
           fill="#dfada5"
           d="m 219.9,330.54 c 0,0 0.17,5.62 -2.997,5.62 -3.166,0 -1.309,-6.196 -1.309,-6.196 l 4.31,0.58 z" />
        <path
           id="path102"
           fill="#dfada5"
           d="m 198.81,327.18 c 0,0 -1.232,4.546 -2.36,4.017 -1.128,-0.529 -1.963,-4.903 -1.963,-4.903 l 4.32,0.88 z" />
        <path
           id="path104"
           fill="#dfada5"
           d="m 181.18,322.96 c 0,0 0.098,3.084 -1.254,2.845 -1.352,-0.239 -1.9,-3.809 -1.9,-3.809 l 3.15,0.97 z" />
        <path
           id="path106"
           fill="#dfada5"
           d="m 161.69,315.16 c 0,0 -0.378,4.954 0.521,4.056 0.899,-0.898 2.476,-2.475 2.476,-2.475 l -3,-1.58 z" />
        <path
           id="path108"
           fill="#abe1fa"
           d="m 222.33,354.47 c -2.709,-0.724 -2.941,-0.49 -2.219,2.218 -0.723,-2.708 -1.125,-3.111 -3.834,-3.834 2.709,0.723 2.941,0.49 2.219,-2.219 0.72,2.7 1.12,3.1 3.83,3.83 z" />
        <path
           id="path110"
           fill="#abe1fa"
           d="m 198.01,348.82 c -2.708,-0.724 -2.941,-0.49 -2.218,2.218 -0.724,-2.708 -1.126,-3.111 -3.834,-3.834 2.708,0.723 2.941,0.49 2.218,-2.219 0.72,2.71 1.12,3.11 3.83,3.83 z" />
        <path
           id="path112"
           fill="#dfada5"
           d="m 279.28,334.57 c 0,0 -1.697,4.904 0.424,3.725 2.121,-1.179 2.121,-3.656 2.121,-3.656 l -2.54,-0.07 z" />
        <path
           id="path114"
           fill="none"
           d="m 291.16,334.82 c 0,0 -127.74,1.097 -142.27,-32.071 7.949,35.36 63.596,75.107 132.67,49.889 16.32,-11.11 9.6,-17.82 9.6,-17.82 z"
           stroke="#cf9e76" />
      </g>
      <g
         id="Layer_2">
        <path
           id="path117"
           fill="#f0d0b4"
           d="m 68.654,303.47 c 0,0 -9.834,-11.615 -5.457,9.784 4.377,21.399 -27.075,17.047 -27.075,6.199 0,-10.849 -12.033,-8.523 -19.554,-34.094 -7.521,-25.571 4.136,-60.051 15.042,-71.287 10.905,-11.236 30.083,44.167 30.083,44.167 l 3.237,18.983"
           stroke="#cf9e76" />
        <path
           id="path119"
           fill="#cf9e76"
           d="m 52.524,292.65 c 0,0 -15.911,-8.951 -10.497,-17.9 5.414,-8.949 9.392,-10.496 9.392,-10.496 0,0 -17.347,-37.236 -20.22,-32.264 -2.873,4.972 -13.48,13.479 -10.166,18.01 3.314,4.531 14.917,4.53 14.917,4.53 0,0 -14.585,-5.304 -11.491,-8.397 3.094,-3.093 8.066,-9.393 8.066,-9.393 0,0 17.181,23.922 14.585,26.519 -2.596,2.597 -16.463,6.077 -15.027,19.005 1.436,12.928 14.253,13.038 14.253,14.475 0,1.437 -4.088,9.833 2.431,5.082 6.519,-4.751 3.757,-9.17 3.757,-9.17 z" />
        <path
           id="path121"
           fill="#cf9e76"
           d="m 31.862,260.61 c 0,0 -11.381,-0.111 -12.375,8.839 -0.994,8.95 5.304,16.795 5.304,16.795 0,0 -7.735,-19.51 7.071,-25.63 z" />
      </g>
    </g>
  </g>
  <metadata
     id="metadata38">
    <rdf:RDF>
      <cc:Work>
        <dc:format>image/svg+xml</dc:format>
        <dc:type
           rdf:resource="http://purl.org/dc/dcmitype/StillImage" />
        <cc:license
           rdf:resource="http://creativecommons.org/licenses/publicdomain/" />
        <dc:publisher>
          <cc:Agent
             rdf:about="http://openclipart.org/">
            <dc:title>Openclipart</dc:title>
          </cc:Agent>
        </dc:publisher>
        <dc:title></dc:title>
      </cc:Work>
      <cc:License
         rdf:about="http://creativecommons.org/licenses/publicdomain/">
        <cc:permits
           rdf:resource="http://creativecommons.org/ns#Reproduction" />
        <cc:permits
           rdf:resource="http://creativecommons.org/ns#Distribution" />
        <cc:permits
           rdf:resource="http://creativecommons.org/ns#DerivativeWorks" />
      </cc:License>
    </rdf:RDF>
  </metadata>
</svg>
